<svg xmlns="http://www.w3.org/2000/svg" viewBox="0 0 900 520">
<rect width="900" height="520" rx="32" fill="#071a2e"/>
<text x="48" y="62" fill="#ffd23f" font-family="Arial,sans-serif" font-size="26" font-weight="700">Cada dedo tem uma região</text>
<text x="48" y="98" fill="#9fb0c9" font-family="Arial,sans-serif" font-size="18">Quanto menos a mão inteira se move, mais natural fica a digitação.</text>
<g transform="translate(80 160)" font-family="Arial,sans-serif" font-weight="700">
<g transform="translate(0 0)"><rect width="350" height="54" rx="12" fill="#0e2b4a" stroke="#ff7a00" stroke-width="2"/><circle cx="28" cy="27" r="12" fill="#ff7a00"/><text x="55" y="34" fill="#f8fafc" font-size="18">Q A Z</text></g><g transform="translate(0 72)"><rect width="350" height="54" rx="12" fill="#0e2b4a" stroke="#ffd23f" stroke-width="2"/><circle cx="28" cy="27" r="12" fill="#ffd23f"/><text x="55" y="34" fill="#f8fafc" font-size="18">W S X</text></g><g transform="translate(0 144)"><rect width="350" height="54" rx="12" fill="#0e2b4a" stroke="#46a7ff" stroke-width="2"/><circle cx="28" cy="27" r="12" fill="#46a7ff"/><text x="55" y="34" fill="#f8fafc" font-size="18">E D C</text></g><g transform="translate(0 216)"><rect width="350" height="54" rx="12" fill="#0e2b4a" stroke="#ff7a00" stroke-width="2"/><circle cx="28" cy="27" r="12" fill="#ff7a00"/><text x="55" y="34" fill="#f8fafc" font-size="18">R F V • T G B</text></g><g transform="translate(390 0)"><rect width="350" height="54" rx="12" fill="#0e2b4a" stroke="#ff7a00" stroke-width="2"/><circle cx="28" cy="27" r="12" fill="#ff7a00"/><text x="55" y="34" fill="#f8fafc" font-size="18">Y H N • U J M</text></g><g transform="translate(390 72)"><rect width="350" height="54" rx="12" fill="#0e2b4a" stroke="#46a7ff" stroke-width="2"/><circle cx="28" cy="27" r="12" fill="#46a7ff"/><text x="55" y="34" fill="#f8fafc" font-size="18">I K ,</text></g><g transform="translate(390 144)"><rect width="350" height="54" rx="12" fill="#0e2b4a" stroke="#ffd23f" stroke-width="2"/><circle cx="28" cy="27" r="12" fill="#ffd23f"/><text x="55" y="34" fill="#f8fafc" font-size="18">O L .</text></g><g transform="translate(390 216)"><rect width="350" height="54" rx="12" fill="#0e2b4a" stroke="#ff7a00" stroke-width="2"/><circle cx="28" cy="27" r="12" fill="#ff7a00"/><text x="55" y="34" fill="#f8fafc" font-size="18">P Ç ; /</text></g>
</g>
<text x="450" y="474" text-anchor="middle" fill="#9fb0c9" font-family="Arial,sans-serif" font-size="18">E = mão esquerda • D = mão direita</text>
</svg>