<svg xmlns="http://www.w3.org/2000/svg" viewBox="0 0 512 288">
<rect width="512" height="288" rx="18" fill="#061525"/>
<rect x="18" y="18" width="476" height="252" rx="16" fill="#0a2139" stroke="#214568"/>
<text x="34" y="48" fill="#ffd23f" font-size="11" font-family="Arial" font-weight="700">RATOTURBO • APRENDER</text>
<text x="34" y="78" fill="#f8fafc" font-size="24" font-family="Arial" font-weight="700">Postura correta do corpo e dos punhos</text>
<text x="34" y="98" fill="#afbdd0" font-size="11" font-family="Arial">Conforto ajuda a manter precisão por mais tempo.</text>
<g transform="translate(70 118)" stroke="#46a7ff" stroke-width="8" stroke-linecap="round" fill="none">
<circle cx="64" cy="18" r="14" fill="#46a7ff" stroke="none"/>
<path d="M64 35 L64 91 M64 52 L29 68 M64 54 L104 62 M64 91 L35 127 M64 91 L94 128"/>
<path d="M29 68 L14 68" stroke="#ffd23f"/><path d="M104 62 L140 62" stroke="#ff7a00"/>
</g>
<g transform="translate(255 126)" font-family="Arial">
<rect width="190" height="48" rx="10" fill="#091d33" stroke="#62d68a" stroke-width="2"/>
<text x="14" y="18" fill="#62d68a" font-size="10" font-weight="700">CERTO</text>
<path d="M62 29 C93 21 127 21 161 28" fill="none" stroke="#62d68a" stroke-width="5" stroke-linecap="round"/>
<text x="14" y="40" fill="#f8fafc" font-size="9">Punhos neutros</text>
<rect y="64" width="190" height="48" rx="10" fill="#091d33" stroke="#e63946" stroke-width="2"/>
<text x="14" y="82" fill="#e63946" font-size="10" font-weight="700">EVITE</text>
<path d="M62 96 C93 76 127 76 161 97" fill="none" stroke="#e63946" stroke-width="5" stroke-linecap="round"/>
<text x="14" y="104" fill="#f8fafc" font-size="9">Punhos levantados</text>
</g>
<text x="52" y="254" fill="#afbdd0" font-size="9" font-family="Arial">Costas apoiadas • Ombros relaxados • Cotovelos próximos de 90°</text>
</svg>